Input #0, mov,mp4,m4a,3gp,3g2,mj2, from 'renders/ai-agent-context-production-review.zh-CN.mp4':
  Metadata:
    major_brand     : isom
    minor_version   : 512
    compatible_brands: isomiso2avc1mp41
    encoder         : Lavf62.12.101
  Duration: 00:01:00.12, start: 0.000000, bitrate: 1549 kb/s
  Stream #0:0[0x1](und): Video: h264 (High) (avc1 / 0x31637661), yuv420p(tv, bt709, progressive), 1920x1080 [SAR 1:1 DAR 16:9], 1350 kb/s, 30 fps, 30 tbr, 15360 tbn (default)
    Metadata:
      handler_name    : VideoHandler
      encoder         : Lavc62.28.101 libx264
  Stream #0:1[0x2](und): Audio: aac (LC) (mp4a / 0x6134706D), 48000 Hz, stereo, fltp, 191 kb/s (default)
    Metadata:
      handler_name    : SoundHandler
Stream mapping:
  Stream #0:0 -> #0:0 (h264 (native) -> wrapped_avframe (native))
  Stream #0:1 -> #0:1 (aac (native) -> pcm_s16le (native))
Press [q] to stop, [?] for help
Output #0, null, to 'pipe:':
  Metadata:
    major_brand     : isom
    minor_version   : 512
    compatible_brands: isomiso2avc1mp41
    encoder         : Lavf62.12.101
  Stream #0:0(und): Video: wrapped_avframe, yuv420p(tv, bt709, progressive), 1920x1080 [SAR 1:1 DAR 16:9], q=2-31, 200 kb/s, 30 fps, 30 tbn (default)
    Metadata:
      encoder         : Lavc62.28.101 wrapped_avframe
      handler_name    : VideoHandler
  Stream #0:1(und): Audio: pcm_s16le, 48000 Hz, stereo, s16, 1536 kb/s (default)
    Metadata:
      encoder         : Lavc62.28.101 pcm_s16le
      handler_name    : SoundHandler
[out#0/null @ 0xc94c74300] video:747KiB audio:11272KiB subtitle:0KiB other streams:0KiB global headers:0KiB muxing overhead: unknown
frame= 1803 fps=0.0 q=-0.0 Lsize=N/A time=00:01:00.10 bitrate=N/A speed= 127x elapsed=0:00:00.47
